<svg xmlns="http://www.w3.org/2000/svg" fill="none" viewBox="0 0 14 14" id="Padlock-Square-1--Streamline-Core.svg" height="14" width="14"><desc>Padlock Square 1 Streamline Icon: https://streamlinehq.com</desc><g id="padlock-square-1--combination-combo-lock-locked-padlock-secure-security-shield-keyhole"><path id="Subtract" fill="#fefefe" fill-rule="evenodd" d="M6.99997 2c-1.10457 0 -2 0.89543 -2 2v1h4V4c0 -1.10457 -0.89543 -2 -2 -2Zm-4 2v1H2.5C1.67157 5 1 5.67157 1 6.5v6c0 0.8284 0.67157 1.5 1.5 1.5h9c0.8284 0 1.5 -0.6716 1.5 -1.5v-6c0 -0.82843 -0.6716 -1.5 -1.5 -1.5H11V4c0 -2.20914 -1.79089 -4 -4.00003 -4 -2.20914 0 -4 1.79086 -4 4ZM7 10.75c0.69036 0 1.25 -0.5596 1.25 -1.25 0 -0.69036 -0.55964 -1.25 -1.25 -1.25s-1.25 0.55964 -1.25 1.25c0 0.6904 0.55964 1.25 1.25 1.25Z" clip-rule="evenodd" stroke-width="1"></path></g></svg>