<svg xmlns="http://www.w3.org/2000/svg" fill="none" viewBox="0 0 14 14" id="User-Story--Streamline-Core.svg" height="14" width="14"><desc>User Story Streamline Icon: https://streamlinehq.com</desc><g id="user-story"><path id="Union" fill="#ffffff" fill-rule="evenodd" d="M6.25015 0.749756c0 -0.414214 0.33578 -0.750000141 0.75 -0.750000141 3.86605 0 7.00015 3.134094141 7.00015 7.000184141 0 3.86606 -3.1341 7.00016 -7.00015 7.00016 -2.47909 0 -4.65656 -1.2892 -5.89928 -3.2303 -0.223341 -0.3488 -0.1216 -0.81267 0.22724 -1.03601 0.34885 -0.22334 0.8127 -0.1216 1.03604 0.22725 0.18026 0.28156 0.38538 0.54556 0.61223 0.78886 1.004 -1.07669 2.43507 -1.74996 4.02339 -1.74996 1.58849 0 3.01973 0.67342 4.02373 1.75036 0.9162 -0.98251 1.4768 -2.30096 1.4768 -3.75036 0 -3.03767 -2.4625 -5.50018 -5.50015 -5.50018 -0.41422 0 -0.75 -0.33579 -0.75 -0.750004Zm-0.96649 0.191579c0.15971 0.382185 -0.02064 0.821475 -0.40282 0.981185 -0.30382 0.12696 -0.59396 0.28048 -0.86753 0.45771 -0.34764 0.22522 -0.81202 0.12598 -1.03724 -0.22165 -0.22522 -0.34763 -0.12599 -0.81202 0.22164 -1.03724 0.34804 -0.225483 0.71751 -0.421005 1.10476 -0.582832 0.38219 -0.15971 0.82148 0.020642 0.98119 0.402827ZM2.39517 3.99044c0.227 -0.34648 0.13014 -0.81137 -0.21634 -1.03836 -0.34648 -0.22699 -0.81137 -0.13013 -1.03836 0.21635 -0.213403 0.32573 -0.400468 0.67045 -0.558104 1.03116 -0.165872 0.37955 0.007349 0.8217 0.3869 0.98758 0.379554 0.16587 0.821704 -0.00735 0.987574 -0.3869 0.12369 -0.28304 0.27059 -0.55378 0.43833 -0.80983ZM0.749512 6.25015c0.414218 0 0.749998 0.33578 0.749998 0.75 0 0.37015 0.03644 0.73104 0.1057 1.07951 0.08075 0.40627 -0.18314 0.80107 -0.5894 0.88182 -0.40627 0.08075 -0.801072 -0.18314 -0.881819 -0.58941 -0.0882956 -0.44424 -0.134479281 -0.90306 -0.134479281 -1.37192 0 -0.41422 0.335786281 -0.75 0.750000281 -0.75ZM9.5 5.49994c0 1.38071 -1.11929 2.5 -2.5 2.5s-2.5 -1.11929 -2.5 -2.5 1.11929 -2.5 2.5 -2.5 2.5 1.11929 2.5 2.5Z" clip-rule="evenodd" stroke-width="1"></path></g></svg>